<svg width="99" height="78" viewBox="0 0 99 78" fill="none" xmlns="http://www.w3.org/2000/svg">
<g clip-path="url(#clip0_0_18)">
<path d="M66.7113 37.2881C65.8979 37.2887 65.1026 37.048 64.426 36.5966C63.7494 36.1451 63.2219 35.5031 62.9102 34.7518C62.5985 34.0004 62.5166 33.1736 62.675 32.3757C62.8333 31.5779 63.2247 30.8449 63.7996 30.2695C64.3746 29.6942 65.1073 29.3022 65.905 29.1433C66.7027 28.9844 67.5297 29.0657 68.2812 29.3768C69.0328 29.6879 69.6751 30.215 70.1271 30.8913C70.5791 31.5676 70.8203 32.3627 70.8203 33.1761C70.8198 34.266 70.3868 35.3111 69.6164 36.0821C68.846 36.853 67.8012 37.2868 66.7113 37.2881ZM66.7113 30.5641C66.1946 30.5635 65.6893 30.7162 65.2593 31.0028C64.8294 31.2895 64.4942 31.6972 64.296 32.1744C64.0978 32.6517 64.0457 33.1769 64.1461 33.6838C64.2466 34.1907 64.4951 34.6564 64.8603 35.022C65.2255 35.3876 65.6909 35.6367 66.1976 35.7377C66.7044 35.8387 67.2297 35.7872 67.7072 35.5895C68.1846 35.3919 68.5928 35.0572 68.8799 34.6275C69.167 34.1979 69.3203 33.6928 69.3203 33.1761C69.3201 32.4839 69.0452 31.8202 68.556 31.3305C68.0669 30.8408 67.4035 30.5651 66.7113 30.5641Z" fill="#FEFFFA"/>
<path d="M45.0417 37.2881C44.2282 37.2889 43.4328 37.0484 42.7561 36.597C42.0794 36.1457 41.5517 35.5038 41.2398 34.7525C40.928 34.0012 40.846 33.1742 41.0042 32.3763C41.1624 31.5784 41.5537 30.8454 42.1287 30.2699C42.7036 29.6944 43.4362 29.3024 44.234 29.1434C45.0318 28.9844 45.8588 29.0656 46.6104 29.3767C47.362 29.6878 48.0044 30.2149 48.4564 30.8912C48.9084 31.5675 49.1497 32.3626 49.1497 33.1761C49.1489 34.2657 48.716 35.3106 47.9459 36.0814C47.1757 36.8523 46.1313 37.2862 45.0417 37.2881ZM45.0417 30.5641C44.5249 30.5633 44.0195 30.7158 43.5895 31.0023C43.1594 31.2889 42.824 31.6965 42.6257 32.1737C42.4274 32.651 42.3751 33.1763 42.4754 33.6832C42.5757 34.1901 42.8242 34.6559 43.1893 35.0216C43.5544 35.3873 44.0199 35.6365 44.5266 35.7376C45.0334 35.8387 45.5588 35.7872 46.0363 35.5896C46.5138 35.3921 46.922 35.0573 47.2092 34.6276C47.4964 34.198 47.6497 33.6929 47.6497 33.1761C47.6492 32.4842 47.3744 31.8207 46.8855 31.3311C46.3966 30.8415 45.7336 30.5657 45.0417 30.5641Z" fill="#FEFFFA"/>
<path d="M72.121 33.926H70.07C69.871 33.926 69.6803 33.8469 69.5396 33.7063C69.399 33.5656 69.32 33.3749 69.32 33.176C69.32 32.977 69.399 32.7863 69.5396 32.6456C69.6803 32.505 69.871 32.426 70.07 32.426H71.909V28.449C71.9085 27.9113 71.7708 27.3826 71.509 26.913L67.449 19.634C67.4143 19.5718 67.3636 19.5201 67.3023 19.4841C67.2409 19.448 67.1711 19.429 67.1 19.429H61.567V32.429H63.353C63.5519 32.429 63.7426 32.508 63.8833 32.6486C64.0239 32.7893 64.103 32.98 64.103 33.179C64.103 33.3779 64.0239 33.5686 63.8833 33.7093C63.7426 33.8499 63.5519 33.929 63.353 33.929H60.817C60.618 33.929 60.4273 33.8499 60.2866 33.7093C60.146 33.5686 60.067 33.3779 60.067 33.179V18.679C60.067 18.48 60.146 18.2893 60.2866 18.1486C60.4273 18.008 60.618 17.929 60.817 17.929H67.1C67.4383 17.9288 67.7706 18.019 68.0624 18.1902C68.3542 18.3614 68.595 18.6075 68.76 18.903L72.819 26.183C73.2048 26.8759 73.4076 27.6558 73.408 28.449V32.639C73.4074 32.9801 73.2717 33.3072 73.0304 33.5484C72.7892 33.7897 72.4621 33.9254 72.121 33.926Z" fill="#FEFFFA"/>
<path d="M41.6833 33.926H34.4923C34.2934 33.926 34.1027 33.8469 33.962 33.7063C33.8214 33.5656 33.7423 33.3749 33.7423 33.176V27.408C33.7423 27.209 33.8214 27.0183 33.962 26.8776C34.1027 26.737 34.2934 26.658 34.4923 26.658C34.6913 26.658 34.882 26.737 35.0227 26.8776C35.1633 27.0183 35.2423 27.209 35.2423 27.408V32.426H41.6833C41.8823 32.426 42.073 32.505 42.2137 32.6456C42.3543 32.7863 42.4333 32.977 42.4333 33.176C42.4333 33.3749 42.3543 33.5656 42.2137 33.7063C42.073 33.8469 41.8823 33.926 41.6833 33.926Z" fill="#FEFFFA"/>
<path d="M34.4923 24.7471C34.2934 24.7471 34.1027 24.668 33.962 24.5274C33.8214 24.3867 33.7423 24.196 33.7423 23.9971V18.9611C33.7423 18.7621 33.8214 18.5714 33.962 18.4307C34.1027 18.2901 34.2934 18.2111 34.4923 18.2111C34.6913 18.2111 34.882 18.2901 35.0227 18.4307C35.1633 18.5714 35.2423 18.7621 35.2423 18.9611V24.0001C35.2415 24.1985 35.1622 24.3884 35.0216 24.5285C34.881 24.6685 34.6907 24.7471 34.4923 24.7471Z" fill="#FEFFFA"/>
<path d="M60.8173 33.9261H48.4003C48.2014 33.9261 48.0107 33.847 47.87 33.7064C47.7294 33.5657 47.6503 33.375 47.6503 33.1761C47.6503 32.9771 47.7294 32.7864 47.87 32.6457C48.0107 32.5051 48.2014 32.4261 48.4003 32.4261H60.0673V12.8051H35.2423V15.8941C35.2423 16.093 35.1633 16.2837 35.0227 16.4244C34.882 16.565 34.6913 16.6441 34.4923 16.6441C34.2934 16.6441 34.1027 16.565 33.962 16.4244C33.8214 16.2837 33.7423 16.093 33.7423 15.8941V12.6671C33.7429 12.3058 33.8867 11.9595 34.1422 11.7042C34.3977 11.4489 34.7441 11.3053 35.1053 11.3051H60.2053C60.5664 11.3056 60.9125 11.4492 61.1678 11.7046C61.4231 11.9599 61.5668 12.306 61.5673 12.6671V33.1761C61.5673 33.375 61.4883 33.5657 61.3477 33.7064C61.207 33.847 61.0163 33.9261 60.8173 33.9261Z" fill="#FEFFFA"/>
<path d="M37.4574 28.158H27.9384C27.7395 28.158 27.5488 28.0789 27.4081 27.9383C27.2675 27.7976 27.1884 27.6069 27.1884 27.408C27.1884 27.209 27.2675 27.0183 27.4081 26.8776C27.5488 26.737 27.7395 26.658 27.9384 26.658H37.4574C37.6564 26.658 37.8471 26.737 37.9878 26.8776C38.1284 27.0183 38.2074 27.209 38.2074 27.408C38.2074 27.6069 38.1284 27.7976 37.9878 27.9383C37.8471 28.0789 37.6564 28.158 37.4574 28.158Z" fill="#FEFFFA"/>
<path d="M31.3461 20.787H26.1591C25.9602 20.787 25.7694 20.708 25.6288 20.5673C25.4881 20.4267 25.4091 20.2359 25.4091 20.037C25.4091 19.8381 25.4881 19.6473 25.6288 19.5067C25.7694 19.366 25.9602 19.287 26.1591 19.287H31.3461C31.545 19.287 31.7358 19.366 31.8764 19.5067C32.0171 19.6473 32.0961 19.8381 32.0961 20.037C32.0961 20.2359 32.0171 20.4267 31.8764 20.5673C31.7358 20.708 31.545 20.787 31.3461 20.787Z" fill="#FEFFFA"/>
<path d="M39.663 16.6439H30.507C30.3081 16.6439 30.1173 16.5649 29.9767 16.4243C29.836 16.2836 29.757 16.0928 29.757 15.8939C29.757 15.695 29.836 15.5042 29.9767 15.3636C30.1173 15.2229 30.3081 15.1439 30.507 15.1439H39.663C39.8619 15.1439 40.0527 15.2229 40.1933 15.3636C40.334 15.5042 40.413 15.695 40.413 15.8939C40.413 16.0928 40.334 16.2836 40.1933 16.4243C40.0527 16.5649 39.8619 16.6439 39.663 16.6439Z" fill="#FEFFFA"/>
</g>
<path d="M18.4611 60.832C19.6345 60.832 20.6638 61.0613 21.5491 61.52C22.4451 61.9787 23.1331 62.6347 23.6131 63.488C24.1038 64.3307 24.3491 65.312 24.3491 66.432C24.3491 67.552 24.1038 68.5333 23.6131 69.376C23.1331 70.208 22.4451 70.8533 21.5491 71.312C20.6638 71.7707 19.6345 72 18.4611 72H14.5571V60.832H18.4611ZM18.3811 70.096C19.5545 70.096 20.4611 69.776 21.1011 69.136C21.7411 68.496 22.0611 67.5947 22.0611 66.432C22.0611 65.2693 21.7411 64.3627 21.1011 63.712C20.4611 63.0507 19.5545 62.72 18.3811 62.72H16.7971V70.096H18.3811ZM28.2659 62.64V65.44H32.0259V67.216H28.2659V70.176H32.5059V72H26.0259V60.816H32.5059V62.64H28.2659ZM36.7815 70.224H40.4615V72H34.5415V60.832H36.7815V70.224ZM44.1253 60.832V72H41.8853V60.832H44.1253ZM56.3704 60.832L52.2744 72H49.5544L45.4584 60.832H47.8584L50.9304 69.712L53.9864 60.832H56.3704ZM59.9534 62.64V65.44H63.7134V67.216H59.9534V70.176H64.1934V72H57.7134V60.816H64.1934V62.64H59.9534ZM71.989 72L69.525 67.648H68.469V72H66.229V60.832H70.421C71.285 60.832 72.021 60.9867 72.629 61.296C73.237 61.5947 73.6903 62.0053 73.989 62.528C74.2983 63.04 74.453 63.616 74.453 64.256C74.453 64.992 74.2397 65.6587 73.813 66.256C73.3863 66.8427 72.7517 67.248 71.909 67.472L74.581 72H71.989ZM68.469 65.968H70.341C70.949 65.968 71.4023 65.824 71.701 65.536C71.9997 65.2373 72.149 64.8267 72.149 64.304C72.149 63.792 71.9997 63.3973 71.701 63.12C71.4023 62.832 70.949 62.688 70.341 62.688H68.469V65.968ZM85.359 60.832L81.583 68.112V72H79.343V68.112L75.551 60.832H78.079L80.479 65.936L82.863 60.832H85.359Z" fill="#FEFFFA"/>
<defs>
<clipPath id="clip0_0_18">
<rect width="48" height="48" fill="white" transform="translate(25.5)"/>
</clipPath>
</defs>
</svg>
