<svg width="99" height="78" viewBox="0 0 99 78" fill="none" xmlns="http://www.w3.org/2000/svg">
<path d="M50 8C41.1778 8 34 15.1778 34 24C34 32.8222 41.1778 40 50 40C58.8222 40 66 32.8222 66 24C66 15.1778 58.8222 8 50 8ZM50 38C42.2803 38 36 31.7197 36 24C36 16.2803 42.2803 10 50 10C57.7197 10 64 16.2803 64 24C64 31.7197 57.7197 38 50 38Z" fill="#FEFFFA"/>
<path d="M50.8165 14H49V24.5967L54.7157 31L56 29.5611L50.8165 23.754V14Z" fill="#FEFFFA"/>
<path d="M14.5861 60.832C15.7595 60.832 16.7888 61.0613 17.6741 61.52C18.5701 61.9787 19.2581 62.6347 19.7381 63.488C20.2288 64.3307 20.4741 65.312 20.4741 66.432C20.4741 67.552 20.2288 68.5333 19.7381 69.376C19.2581 70.208 18.5701 70.8533 17.6741 71.312C16.7888 71.7707 15.7595 72 14.5861 72H10.6821V60.832H14.5861ZM14.5061 70.096C15.6795 70.096 16.5861 69.776 17.2261 69.136C17.8661 68.496 18.1861 67.5947 18.1861 66.432C18.1861 65.2693 17.8661 64.3627 17.2261 63.712C16.5861 63.0507 15.6795 62.72 14.5061 62.72H12.9221V70.096H14.5061ZM24.3909 60.832V72H22.1509V60.832H24.3909ZM30.46 72.112C29.6813 72.112 28.9773 71.9787 28.348 71.712C27.7293 71.4453 27.2387 71.0613 26.876 70.56C26.5133 70.0587 26.3267 69.4667 26.316 68.784H28.716C28.748 69.2427 28.908 69.6053 29.196 69.872C29.4947 70.1387 29.9 70.272 30.412 70.272C30.9347 70.272 31.3453 70.1493 31.644 69.904C31.9427 69.648 32.092 69.3173 32.092 68.912C32.092 68.5813 31.9907 68.3093 31.788 68.096C31.5853 67.8827 31.3293 67.7173 31.02 67.6C30.7213 67.472 30.3053 67.3333 29.772 67.184C29.0467 66.9707 28.4547 66.7627 27.996 66.56C27.548 66.3467 27.1587 66.032 26.828 65.616C26.508 65.1893 26.348 64.624 26.348 63.92C26.348 63.2587 26.5133 62.6827 26.844 62.192C27.1747 61.7013 27.6387 61.328 28.236 61.072C28.8333 60.8053 29.516 60.672 30.284 60.672C31.436 60.672 32.3693 60.9547 33.084 61.52C33.8093 62.0747 34.2093 62.8533 34.284 63.856H31.82C31.7987 63.472 31.6333 63.1573 31.324 62.912C31.0253 62.656 30.6253 62.528 30.124 62.528C29.6867 62.528 29.3347 62.64 29.068 62.864C28.812 63.088 28.684 63.4133 28.684 63.84C28.684 64.1387 28.78 64.3893 28.972 64.592C29.1747 64.784 29.42 64.944 29.708 65.072C30.0067 65.1893 30.4227 65.328 30.956 65.488C31.6813 65.7013 32.2733 65.9147 32.732 66.128C33.1907 66.3413 33.5853 66.6613 33.916 67.088C34.2467 67.5147 34.412 68.0747 34.412 68.768C34.412 69.3653 34.2573 69.92 33.948 70.432C33.6387 70.944 33.1853 71.3547 32.588 71.664C31.9907 71.9627 31.2813 72.112 30.46 72.112ZM44.498 64.288C44.498 64.8853 44.354 65.4453 44.066 65.968C43.7887 66.4907 43.346 66.912 42.738 67.232C42.1407 67.552 41.3833 67.712 40.466 67.712H38.594V72H36.354V60.832H40.466C41.33 60.832 42.066 60.9813 42.674 61.28C43.282 61.5787 43.7353 61.9893 44.034 62.512C44.3433 63.0347 44.498 63.6267 44.498 64.288ZM40.37 65.904C40.9887 65.904 41.4473 65.7653 41.746 65.488C42.0447 65.2 42.194 64.8 42.194 64.288C42.194 63.2 41.586 62.656 40.37 62.656H38.594V65.904H40.37ZM52.9364 69.872H48.4884L47.7524 72H45.4004L49.4164 60.816H52.0244L56.0404 72H53.6724L52.9364 69.872ZM52.3284 68.08L50.7124 63.408L49.0964 68.08H52.3284ZM65.1415 60.832V62.64H62.1655V72H59.9255V62.64H56.9495V60.832H65.1415ZM66.2319 66.4C66.2319 65.3013 66.4772 64.32 66.9679 63.456C67.4692 62.5813 68.1465 61.904 68.9999 61.424C69.8639 60.9333 70.8292 60.688 71.8959 60.688C73.1439 60.688 74.2372 61.008 75.1759 61.648C76.1145 62.288 76.7705 63.1733 77.1439 64.304H74.5679C74.3119 63.7707 73.9492 63.3707 73.4799 63.104C73.0212 62.8373 72.4879 62.704 71.8799 62.704C71.2292 62.704 70.6479 62.8587 70.1359 63.168C69.6345 63.4667 69.2399 63.8933 68.9519 64.448C68.6745 65.0027 68.5359 65.6533 68.5359 66.4C68.5359 67.136 68.6745 67.7867 68.9519 68.352C69.2399 68.9067 69.6345 69.3387 70.1359 69.648C70.6479 69.9467 71.2292 70.096 71.8799 70.096C72.4879 70.096 73.0212 69.9627 73.4799 69.696C73.9492 69.4187 74.3119 69.0133 74.5679 68.48H77.1439C76.7705 69.6213 76.1145 70.512 75.1759 71.152C74.2479 71.7813 73.1545 72.096 71.8959 72.096C70.8292 72.096 69.8639 71.856 68.9999 71.376C68.1465 70.8853 67.4692 70.208 66.9679 69.344C66.4772 68.48 66.2319 67.4987 66.2319 66.4ZM88.3211 60.832V72H86.0811V67.248H81.2971V72H79.0571V60.832H81.2971V65.424H86.0811V60.832H88.3211Z" fill="#FEFFFA"/>
</svg>
