<svg width="99" height="78" viewBox="0 0 99 78" fill="none" xmlns="http://www.w3.org/2000/svg">
<g clip-path="url(#clip0_0_30)">
<mask id="mask0_0_30" style="mask-type:luminance" maskUnits="userSpaceOnUse" x="25" y="0" width="49" height="49">
<path d="M25.5041 0.00025177H73.5041V48.0002H25.5041V0.00025177Z" fill="white"/>
</mask>
<g mask="url(#mask0_0_30)">
<path d="M50 9L37 14.1723V20.4599C37 28.597 42.1382 35.925 50 39C57.8617 35.925 63 28.597 63 20.4599V14.1723L50 9Z" stroke="#FEFFFA" stroke-width="1.5" stroke-miterlimit="10" stroke-linecap="round" stroke-linejoin="round"/>
<path d="M45 23.6499L48.5829 27L55 21" stroke="#FEFFFA" stroke-width="1.5" stroke-miterlimit="10" stroke-linecap="round" stroke-linejoin="round"/>
</g>
</g>
<path d="M11.0675 64.192C10.8115 63.7227 10.4595 63.3653 10.0115 63.12C9.5635 62.8747 9.04083 62.752 8.4435 62.752C7.78217 62.752 7.1955 62.9013 6.6835 63.2C6.1715 63.4987 5.7715 63.9253 5.4835 64.48C5.1955 65.0347 5.0515 65.6747 5.0515 66.4C5.0515 67.1467 5.1955 67.7973 5.4835 68.352C5.78217 68.9067 6.19283 69.3333 6.7155 69.632C7.23817 69.9307 7.84617 70.08 8.5395 70.08C9.39283 70.08 10.0915 69.856 10.6355 69.408C11.1795 68.9493 11.5368 68.3147 11.7075 67.504H7.8675V65.792H13.9155V67.744C13.7662 68.5227 13.4462 69.2427 12.9555 69.904C12.4648 70.5653 11.8302 71.0987 11.0515 71.504C10.2835 71.8987 9.4195 72.096 8.4595 72.096C7.38217 72.096 6.40617 71.856 5.5315 71.376C4.6675 70.8853 3.98483 70.208 3.4835 69.344C2.99283 68.48 2.7475 67.4987 2.7475 66.4C2.7475 65.3013 2.99283 64.32 3.4835 63.456C3.98483 62.5813 4.6675 61.904 5.5315 61.424C6.40617 60.9333 7.37683 60.688 8.4435 60.688C9.70217 60.688 10.7955 60.9973 11.7235 61.616C12.6515 62.224 13.2915 63.0827 13.6435 64.192H11.0675ZM17.7808 60.832V67.744C17.7808 68.5013 17.9781 69.0827 18.3728 69.488C18.7674 69.8827 19.3221 70.08 20.0368 70.08C20.7621 70.08 21.3221 69.8827 21.7168 69.488C22.1114 69.0827 22.3088 68.5013 22.3088 67.744V60.832H24.5648V67.728C24.5648 68.6773 24.3568 69.4827 23.9408 70.144C23.5354 70.7947 22.9861 71.2853 22.2928 71.616C21.6101 71.9467 20.8474 72.112 20.0048 72.112C19.1728 72.112 18.4154 71.9467 17.7328 71.616C17.0608 71.2853 16.5274 70.7947 16.1328 70.144C15.7381 69.4827 15.5408 68.6773 15.5408 67.728V60.832H17.7808ZM33.577 69.872H29.129L28.393 72H26.041L30.057 60.816H32.665L36.681 72H34.313L33.577 69.872ZM32.969 68.08L31.353 63.408L29.737 68.08H32.969ZM43.9421 72L41.4781 67.648H40.4221V72H38.1821V60.832H42.3741C43.2381 60.832 43.9741 60.9867 44.5821 61.296C45.1901 61.5947 45.6435 62.0053 45.9421 62.528C46.2515 63.04 46.4061 63.616 46.4061 64.256C46.4061 64.992 46.1928 65.6587 45.7661 66.256C45.3395 66.8427 44.7048 67.248 43.8621 67.472L46.5341 72H43.9421ZM40.4221 65.968H42.2941C42.9021 65.968 43.3555 65.824 43.6541 65.536C43.9528 65.2373 44.1021 64.8267 44.1021 64.304C44.1021 63.792 43.9528 63.3973 43.6541 63.12C43.3555 62.832 42.9021 62.688 42.2941 62.688H40.4221V65.968ZM55.2801 69.872H50.8321L50.0961 72H47.7441L51.7601 60.816H54.3681L58.3841 72H56.0161L55.2801 69.872ZM54.6721 68.08L53.0561 63.408L51.4401 68.08H54.6721ZM69.4373 72H67.1973L62.1253 64.336V72H59.8853V60.816H62.1253L67.1973 68.496V60.816H69.4373V72ZM79.2509 60.832V62.64H76.2749V72H74.0349V62.64H71.0589V60.832H79.2509ZM83.1253 62.64V65.44H86.8853V67.216H83.1253V70.176H87.3653V72H80.8853V60.816H87.3653V62.64H83.1253ZM91.6409 62.64V65.44H95.4009V67.216H91.6409V70.176H95.8809V72H89.4009V60.816H95.8809V62.64H91.6409Z" fill="#FEFFFA"/>
<defs>
<clipPath id="clip0_0_30">
<rect width="48" height="48" fill="white" transform="translate(25.5)"/>
</clipPath>
</defs>
</svg>
