<svg width="229" height="74" viewBox="0 0 229 74" fill="none" xmlns="http://www.w3.org/2000/svg">
<path d="M78.9788 26.1255H74.3764V47.4871H69.8076V26.1255H65.2051V22.4343H78.9826V26.1255H78.9788Z" fill="#FEFFFA"/>
<path d="M91.9293 47.4871H87.3268L86.8292 44.0603H82.2604L81.7291 47.4871H77.6879L82.324 22.4343H87.2932L91.9293 47.4871ZM86.2679 40.2648L84.4456 28.2002H84.3783L82.788 40.2648H86.2642H86.2679Z" fill="#FEFFFA"/>
<path d="M106.5 47.9788C102.923 47.9788 99.9742 46.1313 99.9742 41.0879V28.9899C99.9742 23.9801 102.986 22.0022 106.53 22.0022C110.073 22.0022 112.592 23.6188 112.592 28.0364C112.592 29.3214 112.524 30.2787 112.393 31.1689L108.685 30.938C108.816 30.2116 108.884 29.5523 108.884 28.6323C108.884 26.3267 108.057 25.6637 106.766 25.6637C105.243 25.6637 104.648 26.7848 104.648 27.906V42.0154C104.648 43.4346 105.31 44.2913 106.799 44.2913C108.09 44.2913 108.917 43.6655 108.917 41.3226C108.917 40.4324 108.816 39.6763 108.719 38.9835L112.363 38.719C112.494 39.5086 112.595 40.6633 112.595 41.885C112.595 46.3361 109.946 47.9825 106.504 47.9825L106.5 47.9788Z" fill="#FEFFFA"/>
<path d="M127.563 47.4871H122.96L122.463 44.0603H117.894L117.363 47.4871H113.321L117.957 22.4343H122.927L127.563 47.4871ZM121.901 40.2648L120.079 28.2002H120.012L118.421 40.2648H121.898H121.901Z" fill="#FEFFFA"/>
<path d="M136.075 47.4871H129.385V22.4343H136.371C140.147 22.4343 142.631 24.4457 142.631 28.8632C142.631 31.8282 141.64 33.8395 139.353 34.6329V34.7C141.838 35.3928 142.994 37.4041 142.994 40.6335C142.994 44.917 140.412 47.4908 136.072 47.4908L136.075 47.4871ZM135.877 26.1591H133.991V32.8823H135.877C137.202 32.8823 138.362 32.0926 138.362 29.6529C138.362 26.7848 137.202 26.1591 135.877 26.1591ZM135.978 36.5102H133.991V43.7623H135.978C137.434 43.7623 138.526 42.8721 138.526 39.9705C138.526 37.2328 137.202 36.5102 135.978 36.5102Z" fill="#FEFFFA"/>
<path d="M149.92 47.4871H145.318V22.4343H149.92V47.4871Z" fill="#FEFFFA"/>
<path d="M166.343 47.4871H162.437L157.104 32.6513H156.94V47.4871H153.033V22.4343H157.404L162.272 35.7205H162.437V22.4343H166.343V47.4871Z" fill="#FEFFFA"/>
<path d="M180.454 47.4871H169.46V22.4343H180.39V26.1255H174.066V32.588H179.529V36.2793H174.066V43.7959H180.457V47.4871H180.454Z" fill="#FEFFFA"/>
<path d="M195.653 26.1255H191.05V47.4871H186.482V26.1255H181.879V22.4343H195.657V26.1255H195.653Z" fill="#FEFFFA"/>
<path d="M207.114 35.4859V35.6163C209.662 36.175 210.261 37.8586 210.325 41.155C210.325 41.8478 210.358 42.8349 210.358 43.3973C210.392 45.9674 210.523 46.6267 210.856 47.4834H206.22C206.021 47.2189 205.92 46.7235 205.89 45.8668C205.823 44.1199 205.759 42.9317 205.726 41.4157C205.625 38.3167 205.194 37.4265 203.608 37.4265H202.25V47.4796H197.647V22.4343H204.667C208.278 22.4343 210.961 24.5127 210.961 29.0271C210.961 32.5545 209.834 34.7298 207.118 35.4896L207.114 35.4859ZM203.933 26.1255H202.246V33.9066H203.87C205.228 33.9066 206.354 33.1467 206.354 29.7199C206.354 26.8854 205.393 26.1255 203.937 26.1255H203.933Z" fill="#FEFFFA"/>
<path d="M226.586 22.4343L221.486 37.7952V47.4871H216.918V37.7617L212.016 22.4343H216.951L219.369 32.29H219.499L222.081 22.4343H226.586Z" fill="#FEFFFA"/>
<path d="M37.2873 49.722H0.88681V25.8052H5.37701V45.2522H32.7971V6.35818H3.13191V1.88846H37.2873V49.722Z" fill="#FEFFFA"/>
<path d="M59.7682 69.2546H23.364V21.4249H57.5231V25.8946H27.8542V64.7849H55.278V45.3379H59.7682V69.2546Z" fill="#FEFFFA"/>
<path d="M10.668 21.1381H9.91211C8.37666 21.1381 7.13193 22.3771 7.13193 23.9056V24.658C7.13193 26.1864 8.37666 27.4255 9.91211 27.4255H10.668C12.2034 27.4255 13.4481 26.1864 13.4481 24.658V23.9056C13.4481 22.3771 12.2034 21.1381 10.668 21.1381Z" fill="#FEFFFA"/>
<path d="M50.8702 42.1942H50.1143C48.5789 42.1942 47.3342 43.4332 47.3342 44.9617V45.7141C47.3342 47.2425 48.5789 48.4816 50.1143 48.4816H50.8702C52.4056 48.4816 53.6504 47.2425 53.6504 45.7141V44.9617C53.6504 43.4332 52.4056 42.1942 50.8702 42.1942Z" fill="#FEFFFA"/>
</svg>
