<svg width="24" height="24" viewBox="0 0 24 24" fill="none" xmlns="http://www.w3.org/2000/svg">
<g clip-path="url(#clip0_0_114)">
<path d="M20.9999 6.7049C20.3258 6.98937 19.6109 7.1761 18.8788 7.25887C19.6414 6.82346 20.2269 6.13398 20.5026 5.31247C19.7777 5.72228 18.9846 6.01101 18.1576 6.1662C17.4839 5.48248 16.5242 5.05518 15.462 5.05518C13.4225 5.05518 11.769 6.63041 11.769 8.57326C11.769 8.84904 11.8017 9.11752 11.8646 9.37508C8.79546 9.22831 6.07436 7.82771 4.25292 5.69918C3.9351 6.21878 3.753 6.82319 3.753 7.46786C3.753 8.68848 4.405 9.76527 5.39585 10.3962C4.8094 10.3787 4.23587 10.2278 3.72311 9.95611C3.7229 9.97085 3.7229 9.98559 3.7229 10.0004C3.7229 11.705 4.99584 13.1269 6.68517 13.4501C6.14136 13.591 5.57095 13.6117 5.0175 13.5104C5.48739 14.9082 6.85125 15.9253 8.46717 15.9537C7.2033 16.8973 5.61093 17.4598 3.88082 17.4598C3.5827 17.4598 3.28879 17.4431 2.99988 17.4106C4.63415 18.4088 6.57527 18.9913 8.66074 18.9913C15.4534 18.9913 19.1678 13.6303 19.1678 8.98127C19.1678 8.82868 19.1643 8.67695 19.1571 8.5261C19.8801 8.02819 20.5041 7.41147 20.9999 6.7049Z" fill="#FEFFFA"/>
</g>
<defs>
<clipPath id="clip0_0_114">
<rect width="18" height="14" fill="white" transform="translate(2.99988 5)"/>
</clipPath>
</defs>
</svg>
